<?xml version="1.0" encoding="utf-8"?>
<!-- Generator: Adobe Illustrator 21.1.0, SVG Export Plug-In . SVG Version: 6.00 Build 0)  -->
<svg version="1.1" id="Layer_1" xmlns="http://www.w3.org/2000/svg" xmlns:xlink="http://www.w3.org/1999/xlink" x="0px" y="0px"
	 viewBox="0 0 55 55" style="enable-background:new 0 0 55 55;" width="50" height="50" xml:space="preserve">
<style type="text/css">
	.st0{fill:#FFFFFF;}
	.st1{fill:url(#SVGID_1_);}
	.st2{fill:url(#SVGID_2_);}
	.st3{fill:url(#SVGID_3_);}
	.st4{fill:url(#SVGID_4_);}
	.st5{opacity:0.33;fill:#FFFFFF;}
	.st6{fill:url(#SVGID_5_);}
	.st7{opacity:0.39;}
</style>
<g>
	<g>
		
			<radialGradient id="SVGID_1_" cx="19.9048" cy="32.842" r="24.4258" gradientTransform="matrix(0.9545 0 0 1.19 1 -9.7692)" gradientUnits="userSpaceOnUse">
			<stop  offset="0" style="stop-color:#000000;stop-opacity:0.5"/>
			<stop  offset="0.8378" style="stop-color:#000000;stop-opacity:0"/>
		</radialGradient>
		<path class="st1" d="M40.9,5.9C28.2,7,20-2.4,20-2.4S11.8,7-0.9,5.9c0,9.4-2.5,41,20.9,55.1C43.4,46.9,40.9,15.3,40.9,5.9z"/>
	</g>
	<g>
		
			<radialGradient id="SVGID_2_" cx="20" cy="25.0405" r="20.6781" gradientTransform="matrix(1 0 0 2 0 -25.0405)" gradientUnits="userSpaceOnUse">
			<stop  offset="0" style="stop-color:#FFFFFF"/>
			<stop  offset="0.2486" style="stop-color:#FCFCFC"/>
			<stop  offset="0.4498" style="stop-color:#F2F2F2"/>
			<stop  offset="0.6343" style="stop-color:#E1E1E1"/>
			<stop  offset="0.8089" style="stop-color:#C9C9C9"/>
			<stop  offset="0.975" style="stop-color:#AAAAAA"/>
			<stop  offset="1" style="stop-color:#A5A5A5"/>
		</radialGradient>
		<path class="st2" d="M20,47.6C0.8,38.2,1.2,18.3,1.4,9.8c0-0.5,0-1,0-1.4c0.5,0,1.1,0,1.6,0c9.3,0,15.7-4.8,17-5.9
			c1.3,1.1,7.7,5.9,17,5.9c0.5,0,1,0,1.6,0c0,0.4,0,0.9,0,1.4C38.8,18.3,39.2,38.2,20,47.6z"/>
		<path class="st0" d="M20,3c1.8,1.4,7.9,5.8,17,5.8c0.4,0,0.8,0,1.2,0c0,0.3,0,0.7,0,1.1c0.2,8.4,0.6,28-18.2,37.3
			C1.2,37.9,1.6,18.2,1.8,9.8c0-0.4,0-0.7,0-1.1c0.4,0,0.8,0,1.2,0C12.1,8.8,18.2,4.4,20,3 M20,2c0,0-6.6,6.1-17,6.1
			C2.4,8.1,1.7,8,1.1,8c0,6.8-2.3,29.8,18.9,40C41.2,37.8,38.9,14.8,38.9,8c-0.7,0-1.3,0.1-1.9,0.1C26.6,8.1,20,2,20,2L20,2z"/>
	</g>
	<linearGradient id="SVGID_3_" gradientUnits="userSpaceOnUse" x1="4.2011" y1="6.7524" x2="21.2254" y2="23.7766">
		<stop  offset="0" style="stop-color:#FF8008"/>
		<stop  offset="1" style="stop-color:#FFE100"/>
	</linearGradient>
	<path class="st3" d="M2.1,8.9c0,3-0.5,9.3,1,16.1H20V3.2C20,3.2,13,9.7,2.1,8.9z"/>
	<linearGradient id="SVGID_4_" gradientUnits="userSpaceOnUse" x1="18.7746" y1="26.2274" x2="30.9602" y2="38.413">
		<stop  offset="0" style="stop-color:#9EEA00"/>
		<stop  offset="1" style="stop-color:#358700"/>
	</linearGradient>
	<path class="st4" d="M20,25v21.8C30.8,41.6,35.1,32.9,36.9,25H20z"/>
	<path class="st5" d="M17,42c-7-11-3-21,0-25c1.6-2.1-0.5-5.4-2.8-8c-2.6,1.1-6.1,1.9-10.2,1.6c0,5.5-1.7,23.4,13.7,32.5
		C17.5,42.8,17.3,42.4,17,42z"/>
	<g>
		<radialGradient id="SVGID_5_" cx="20" cy="25.002" r="15" gradientUnits="userSpaceOnUse">
			<stop  offset="0" style="stop-color:#FFFFFF"/>
			<stop  offset="1" style="stop-color:#FFFFFF;stop-opacity:0"/>
		</radialGradient>
		<circle class="st6" cx="20" cy="25" r="15"/>
	</g>
	<g class="st7">
		<path class="st0" d="M20,25c0.8,5.3,6,2.2,6,6c0,3-1,6-1,6s-1,3-3,6c14-11,12-21,12-31C28.4,12.7,19.5,21.5,20,25z"/>
	</g>
</g>

</svg>
