<svg version="1.1" id="Layer_1" xmlns="http://www.w3.org/2000/svg" x="0" y="0" viewBox="0 0 55 55" width="50" height="50" xml:space="preserve"><style>.st0{fill:#fff}</style><radialGradient id="SVGID_1_" cx="19.905" cy="32.842" r="24.426" gradientTransform="matrix(.9545 0 0 1.19 1 -9.77)" gradientUnits="userSpaceOnUse"><stop offset="0" stop-opacity=".5"/><stop offset=".838" stop-opacity="0"/></radialGradient><path d="M40.9 5.9C28.2 7 20-2.4 20-2.4S11.8 7-.9 5.9c0 9.4-2.5 41 20.9 55.1C43.4 46.9 40.9 15.3 40.9 5.9z" fill="url(#SVGID_1_)"/><radialGradient id="SVGID_2_" cx="20" cy="25.041" r="20.678" gradientTransform="matrix(1 0 0 2 0 -25.04)" gradientUnits="userSpaceOnUse"><stop offset="0" stop-color="#fff"/><stop offset=".249" stop-color="#fcfcfc"/><stop offset=".45" stop-color="#f2f2f2"/><stop offset=".634" stop-color="#e1e1e1"/><stop offset=".809" stop-color="#c9c9c9"/><stop offset=".975" stop-color="#aaa"/><stop offset="1" stop-color="#a5a5a5"/></radialGradient><path d="M20 47.6C.8 38.2 1.2 18.3 1.4 9.8V8.4H3c9.3 0 15.7-4.8 17-5.9 1.3 1.1 7.7 5.9 17 5.9h1.6v1.4c.2 8.5.6 28.4-18.6 37.8z" fill="url(#SVGID_2_)"/><path class="st0" d="M20 3c1.8 1.4 7.9 5.8 17 5.8h1.2v1.1c.2 8.4.6 28-18.2 37.3C1.2 37.9 1.6 18.2 1.8 9.8V8.7H3c9.1.1 15.2-4.3 17-5.7m0-1S13.4 8.1 3 8.1c-.6 0-1.3-.1-1.9-.1 0 6.8-2.3 29.8 18.9 40C41.2 37.8 38.9 14.8 38.9 8c-.7 0-1.3.1-1.9.1C26.6 8.1 20 2 20 2z"/><linearGradient id="SVGID_3_" gradientUnits="userSpaceOnUse" x1="4.201" y1="6.752" x2="21.225" y2="23.777"><stop offset="0" stop-color="#ff8008"/><stop offset="1" stop-color="#ffe100"/></linearGradient><path d="M2.1 8.9c0 3-.5 9.3 1 16.1H20V3.2S13 9.7 2.1 8.9z" fill="url(#SVGID_3_)"/><linearGradient id="SVGID_4_" gradientUnits="userSpaceOnUse" x1="18.775" y1="26.227" x2="30.96" y2="38.413"><stop offset="0" stop-color="#9eea00"/><stop offset="1" stop-color="#358700"/></linearGradient><path d="M20 25v21.8C30.8 41.6 35.1 32.9 36.9 25H20z" fill="url(#SVGID_4_)"/><path d="M17 42c-7-11-3-21 0-25 1.6-2.1-.5-5.4-2.8-8-2.6 1.1-6.1 1.9-10.2 1.6C4 16.1 2.3 34 17.7 43.1c-.2-.3-.4-.7-.7-1.1z" opacity=".33" fill="#fff"/><radialGradient id="SVGID_5_" cx="20" cy="25.002" r="15" gradientUnits="userSpaceOnUse"><stop offset="0" stop-color="#fff"/><stop offset="1" stop-color="#fff" stop-opacity="0"/></radialGradient><circle cx="20" cy="25" r="15" fill="url(#SVGID_5_)"/><path class="st0" d="M20 25c.8 5.3 6 2.2 6 6 0 3-1 6-1 6s-1 3-3 6c14-11 12-21 12-31-5.6.7-14.5 9.5-14 13z" opacity=".39"/></svg>