<svg height="24" viewBox="0 0 64 64" fill="#fff" xmlns="http://www.w3.org/2000/svg"><path d="M46 58a2 2 0 010-4h.002A2 2 0 1150 54c0 2.206-1.794 4-4 4z"/><path d="M48 56a2 2 0 01-2-2V34.385a2 2 0 014 0V54a2 2 0 01-2 2z"/><path d="M46 58H10a2 2 0 010-4h36a2 2 0 010 4z"/><path d="M10 58c-2.206 0-4-1.794-4-4a2 2 0 014 0v.003A1.999 1.999 0 1110 58z"/><path d="M8 56a2 2 0 01-2-2V18a2 2 0 014 0v36a2 2 0 01-2 2z"/><path d="M7.999 20A2 2 0 016 18c0-2.206 1.794-4 4-4a2 2 0 010 4h-.002a2 2 0 01-1.999 2z"/><path d="M29.615 18H10a2 2 0 010-4h19.615a2 2 0 010 4zm-1.684 12.998a2 2 0 01-1.414-3.414L46.05 8.051a2 2 0 112.828 2.828L29.345 30.412c-.39.391-.903.586-1.414.586z"/><path d="M26.002 40a1.999 1.999 0 01-1.957-2.419l1.931-9.002a1.997 1.997 0 012.375-1.536 1.999 1.999 0 011.536 2.374l-1.931 9.002A2.001 2.001 0 0126.002 40zm9-1.932a2 2 0 01-1.414-3.414l19.533-19.533a2 2 0 112.828 2.828L36.416 37.482a1.99 1.99 0 01-1.414.586z"/><path d="M25.998 40a2 2 0 01-.418-3.955l9.002-1.932a2 2 0 01.839 3.91l-9.002 1.932c-.141.03-.282.045-.421.045zM51 22.071a1.99 1.99 0 01-1.414-.586l-7.071-7.071a2 2 0 112.828-2.828l7.071 7.071A2 2 0 0151 22.071zm3.535-3.536a2 2 0 01-1.415-3.415c.554-.553.859-1.307.859-2.12s-.305-1.567-.859-2.12c-1.11-1.111-3.135-1.11-4.243-.001a2 2 0 01-2.829-2.828c1.31-1.311 3.068-2.032 4.95-2.032s3.641.722 4.95 2.032c1.309 1.309 2.03 3.066 2.03 4.949s-.721 3.641-2.031 4.95c-.388.39-.9.585-1.412.585z"/></svg>