<?xml version="1.0" encoding="iso-8859-1"?>
<!-- Generator: Adobe Illustrator 19.0.0, SVG Export Plug-In . SVG Version: 6.00 Build 0)  -->
<svg version="1.1" id="Capa_1" xmlns="http://www.w3.org/2000/svg" xmlns:xlink="http://www.w3.org/1999/xlink" x="0px" y="0px"
	 viewBox="0 0 512.002 512.002" style="enable-background:new 0 0 512.002 512.002;" xml:space="preserve" width="16" height="16" fill="#8a8d92">
<g>
	<g>
		<path d="M356.002,0h-301c-30.327,0-55,24.673-55,55v351c0,6.174,3.782,11.717,9.53,13.968c5.83,2.281,12.347,0.687,16.481-3.782
			L132.559,301h223.442c30.327,0,55-24.673,55-55V55C411.002,24.673,386.329,0,356.002,0z M176.002,229.286h-111
			c-8.284,0-15-6.716-15-15s6.716-15,15-15h111c8.284,0,15,6.716,15,15S184.286,229.286,176.002,229.286z M346.002,160.643h-281
			c-8.284,0-15-6.716-15-15s6.716-15,15-15h281c8.284,0,15,6.716,15,15S354.286,160.643,346.002,160.643z M346.002,92h-281
			c-8.284,0-15-6.716-15-15s6.716-15,15-15h281c8.284,0,15,6.716,15,15S354.286,92,346.002,92z"/>
	</g>
</g>
<g>
	<g>
		<path d="M457.002,91h-16v155c0,46.869-38.131,85-85,85H145.676l-34.706,37.52c9.958,14.183,26.425,23.48,45.032,23.48h223.441
			L485.99,507.186c4.139,4.474,10.657,6.061,16.481,3.782c5.748-2.251,9.53-7.794,9.53-13.968V146
			C512.002,115.673,487.329,91,457.002,91z"/>
	</g>
</g>
<g>
</g>
<g>
</g>
<g>
</g>
<g>
</g>
<g>
</g>
<g>
</g>
<g>
</g>
<g>
</g>
<g>
</g>
<g>
</g>
<g>
</g>
<g>
</g>
<g>
</g>
<g>
</g>
<g>
</g>
</svg>
