<?xml version="1.0" encoding="utf-8"?>
<!-- Generator: Adobe Illustrator 18.1.1, SVG Export Plug-In . SVG Version: 6.00 Build 0)  -->
<svg version="1.1" id="Layer_1" xmlns="http://www.w3.org/2000/svg" xmlns:xlink="http://www.w3.org/1999/xlink" x="0px" y="0px"
	 viewBox="0 0 96 96" enable-background="new 0 0 96 96" xml:space="preserve">
<g>
	<g>
		<path fill="#FFFFFF" d="M47.1,10.3c-1.7,0.8-3.5,1.2-5.4,1.5c2-1.2,3.4-3.1,4.1-5.2c-1.8,1.1-3.8,1.8-6,2.3C38.2,7,35.8,6,33,6
			c-5.2,0-9.5,4.3-9.5,9.5c0,0.8,0.2,1.5,0.3,2.1C16,17.2,9.1,13.5,4.4,7.8c-0.8,1.4-1.2,3.1-1.2,4.7c0,3.2,1.7,6.1,4.1,7.8
			c-1.5,0-3.1-0.5-4.3-1.2v0.2c0,4.6,3.2,8.4,7.5,9.2c-0.8,0.2-1.7,0.3-2.5,0.3c-0.6,0-1.2,0-1.8-0.2c1.2,3.7,4.7,6.4,8.7,6.6
			c-3.2,2.5-7.4,4-11.6,4c-0.8,0-1.5,0-2.3-0.2c4.1,2.6,9.2,4.3,14.4,4.3c17.3,0,26.8-14.4,26.8-26.8v-1.2
			C44.2,13.8,45.9,12.1,47.1,10.3z"/>
	</g>
</g>
<g>
	<g>
		<path fill="#FFFFFF" d="M78.3,2.2H68c-4.6,0-7.7,1-10.6,3.4c-2.2,2-3.6,4.8-3.6,7.5c0,4.3,3.2,8.8,9.3,8.8c0.6,0,1.2,0,1.8-0.1
			L64.8,22c-0.2,0.6-0.5,1.1-0.5,2c0,1.7,0.8,2.7,1.6,3.7l0.1,0.1h-0.2c-2.5,0.2-7.1,0.5-10.5,2.6c-4,2.4-4.3,5.8-4.3,6.8
			c0,4,3.7,8,12.1,8c9.7,0,14.7-5.3,14.7-10.6c0.1-3.9-2.2-5.9-4.6-7.9l-2-1.6c-0.6-0.5-1.4-1.2-1.4-2.4c0-1.2,0.8-2,1.5-2.7
			l0.1-0.1c2.2-1.7,4.7-3.7,4.7-8c0-4.3-2.7-6.5-4-7.6h3.4c0,0,0.1,0,0.1,0l2.9-1.9c0.1,0,0.1-0.1,0.1-0.3
			C78.5,2.3,78.4,2.2,78.3,2.2z M65.8,42.9c-5.9,0-9.9-2.8-9.9-6.8c0-2.7,1.6-4.6,4.8-5.8c2.5-0.8,5.9-0.9,5.9-0.9
			c0.6,0,0.8,0,1.3,0c4.2,2.9,6.1,4.5,6.1,7.4C74.1,40.6,70.9,42.9,65.8,42.9z M65.8,20.3c-4.9,0-7-6.5-7-10c0-1.8,0.4-3.1,1.2-4.2
			c0.9-1.1,2.4-1.9,3.9-1.9c4.5,0,7.1,6.1,7.1,10.3c0,0.7,0,2.7-1.4,4.1C68.6,19.7,67.1,20.3,65.8,20.3z"/>
		<path fill="#FFFFFF" d="M92.7,22.3h-5.4V17c0-0.1-0.1-0.2-0.2-0.2h-2.3c-0.1,0-0.2,0.1-0.2,0.2v5.4h-5.4c-0.1,0-0.2,0.1-0.2,0.2
			v2.4c0,0.1,0.1,0.2,0.2,0.2h5.4v5.4c0,0.1,0.1,0.2,0.2,0.2H87c0.1,0,0.2-0.1,0.2-0.2v-5.4h5.4c0.1,0,0.2-0.1,0.2-0.2v-2.4
			C92.9,22.4,92.8,22.3,92.7,22.3z"/>
	</g>
</g>
<g>
	<path fill="#FFFFFF" d="M35.1,50h-5.7c-6.4,0-10.6,4.3-10.6,10.9v4.9h-5.7c-0.5,0-0.9,0.4-0.9,0.9v7.2c0,0.5,0.4,0.9,0.9,0.9h5.7
		v18.2c0,0.5,0.4,0.9,0.9,0.9h7.5c0.5,0,0.9-0.4,0.9-0.9V74.9h6.7c0.5,0,0.9-0.4,0.9-0.9v-7.2c0-0.2-0.1-0.5-0.3-0.6
		c-0.2-0.2-0.5-0.3-0.7-0.3h-6.7v-4.2c0-2,0.5-3.1,3.1-3.1h3.8c0.5,0,0.9-0.4,0.9-0.9v-6.7C36,50.4,35.6,50,35.1,50z"/>
</g>
</svg>
